name C:/MyDriveSym/Projects/mobilecap/Data\Session20210830_0002\mocap\ForceDataProcessed\walking2_forces.mot
datacolumns 19
datarows 29
range 0.32450000 0.33850000
endheader 
time	R_ground_force_vx	R_ground_force_vy	R_ground_force_vz	R_ground_force_px	R_ground_force_py	R_ground_force_pz	R_ground_torque_x	R_ground_torque_y	R_ground_torque_z	L_ground_force_vx	L_ground_force_vy	L_ground_force_vz	L_ground_force_px	L_ground_force_py	L_ground_force_pz	L_ground_torque_x	L_ground_torque_y	L_ground_torque_z	
          0.32450000	        -38.27428400	        619.89763800	        -18.73580000	          0.16634100	          0.00600000	         -0.13294600	          0.00000000	         -0.45059400	          0.00000000	          0.00000000	          0.00000000	          0.00000000	          0.70727500	          0.00000000	         -0.16987800	          0.00000000	          0.00000000	          0.00000000	
          0.32500000	        -38.05360600	        619.50092900	        -18.67424600	          0.16657300	          0.00600000	         -0.13292900	          0.00000000	         -0.45290100	          0.00000000	          0.00000000	          0.00000000	          0.00000000	          0.70727500	          0.00000000	         -0.16987800	          0.00000000	          0.00000000	          0.00000000	
          0.32550000	        -37.83333000	        619.10922900	        -18.61298600	          0.16680400	          0.00600000	         -0.13291100	          0.00000000	         -0.45529000	          0.00000000	          0.00000000	          0.00000000	          0.00000000	          0.70727500	          0.00000000	         -0.16987800	          0.00000000	          0.00000000	          0.00000000	
          0.32600000	        -37.61345200	        618.72255400	        -18.55202500	          0.16703600	          0.00600000	         -0.13289400	          0.00000000	         -0.45776000	          0.00000000	          0.00000000	          0.00000000	          0.00000000	          0.70727500	          0.00000000	         -0.16987800	          0.00000000	          0.00000000	          0.00000000	
          0.32650000	        -37.39396800	        618.34091800	        -18.49136300	          0.16726700	          0.00600000	         -0.13287600	          0.00000000	         -0.46031100	          0.00000000	          0.00000000	          0.00000000	          0.00000000	          0.70727500	          0.00000000	         -0.16987800	          0.00000000	          0.00000000	          0.00000000	
          0.32700000	        -37.17487400	        617.96433300	        -18.43100400	          0.16749800	          0.00600000	         -0.13285900	          0.00000000	         -0.46294200	          0.00000000	          0.00000000	          0.00000000	          0.00000000	          0.70727500	          0.00000000	         -0.16987800	          0.00000000	          0.00000000	          0.00000000	
          0.32750000	        -36.95616600	        617.59281400	        -18.37094900	          0.16773000	          0.00600000	         -0.13284200	          0.00000000	         -0.46565400	          0.00000000	          0.00000000	          0.00000000	          0.00000000	          0.70727500	          0.00000000	         -0.16987800	          0.00000000	          0.00000000	          0.00000000	
          0.32800000	        -36.73784100	        617.22637400	        -18.31120100	          0.16796100	          0.00600000	         -0.13282500	          0.00000000	         -0.46844500	          0.00000000	          0.00000000	          0.00000000	          0.00000000	          0.70727500	          0.00000000	         -0.16987800	          0.00000000	          0.00000000	          0.00000000	
          0.32850000	        -36.51989300	        616.86502500	        -18.25176200	          0.16819200	          0.00600000	         -0.13280900	          0.00000000	         -0.47131600	          0.00000000	          0.00000000	          0.00000000	          0.00000000	          0.70727500	          0.00000000	         -0.16987800	          0.00000000	          0.00000000	          0.00000000	
          0.32900000	        -36.30231900	        616.50878000	        -18.19263500	          0.16842400	          0.00600000	         -0.13279200	          0.00000000	         -0.47426600	          0.00000000	          0.00000000	          0.00000000	          0.00000000	          0.70727500	          0.00000000	         -0.16987800	          0.00000000	          0.00000000	          0.00000000	
          0.32950000	        -36.08511400	        616.15764900	        -18.13382400	          0.16865500	          0.00600000	         -0.13277600	          0.00000000	         -0.47729400	          0.00000000	          0.00000000	          0.00000000	          0.00000000	          0.70727500	          0.00000000	         -0.16987800	          0.00000000	          0.00000000	          0.00000000	
          0.33000000	        -35.86827500	        615.81164600	        -18.07532900	          0.16888600	          0.00600000	         -0.13275900	          0.00000000	         -0.48040000	          0.00000000	          0.00000000	          0.00000000	          0.00000000	          0.70727500	          0.00000000	         -0.16987800	          0.00000000	          0.00000000	          0.00000000	
          0.33050000	        -35.65179700	        615.47078000	        -18.01715500	          0.16911700	          0.00600000	         -0.13274300	          0.00000000	         -0.48358400	          0.00000000	          0.00000000	          0.00000000	          0.00000000	          0.70727500	          0.00000000	         -0.16987800	          0.00000000	          0.00000000	          0.00000000	
          0.33100000	        -35.43567500	        615.13506200	        -17.95930300	          0.16934800	          0.00600000	         -0.13272700	          0.00000000	         -0.48684500	          0.00000000	          0.00000000	          0.00000000	          0.00000000	          0.70727500	          0.00000000	         -0.16987800	          0.00000000	          0.00000000	          0.00000000	
          0.33150000	        -35.21990600	        614.80450200	        -17.90177700	          0.16957900	          0.00600000	         -0.13271100	          0.00000000	         -0.49018300	          0.00000000	          0.00000000	          0.00000000	          0.00000000	          0.70727500	          0.00000000	         -0.16987800	          0.00000000	          0.00000000	          0.00000000	
          0.33200000	        -35.00448400	        614.47911000	        -17.84458000	          0.16981000	          0.00600000	         -0.13269600	          0.00000000	         -0.49359700	          0.00000000	          0.00000000	          0.00000000	          0.00000000	          0.70727500	          0.00000000	         -0.16987800	          0.00000000	          0.00000000	          0.00000000	
          0.33250000	        -34.78940600	        614.15889500	        -17.78771500	          0.17004100	          0.00600000	         -0.13268000	          0.00000000	         -0.49708600	          0.00000000	          0.00000000	          0.00000000	          0.00000000	          0.70727500	          0.00000000	         -0.16987800	          0.00000000	          0.00000000	          0.00000000	
          0.33300000	        -34.57466700	        613.84386700	        -17.73118400	          0.17027200	          0.00600000	         -0.13266500	          0.00000000	         -0.50065200	          0.00000000	          0.00000000	          0.00000000	          0.00000000	          0.70727500	          0.00000000	         -0.16987800	          0.00000000	          0.00000000	          0.00000000	
          0.33350000	        -34.36026200	        613.53403400	        -17.67499100	          0.17050200	          0.00600000	         -0.13265000	          0.00000000	         -0.50429100	          0.00000000	          0.00000000	          0.00000000	          0.00000000	          0.70727500	          0.00000000	         -0.16987800	          0.00000000	          0.00000000	          0.00000000	
          0.33400000	        -34.14618700	        613.22940400	        -17.61913900	          0.17073300	          0.00600000	         -0.13263500	          0.00000000	         -0.50800600	          0.00000000	          0.00000000	          0.00000000	          0.00000000	          0.70727500	          0.00000000	         -0.16987800	          0.00000000	          0.00000000	          0.00000000	
          0.33450000	        -33.93243700	        612.92998600	        -17.56363000	          0.17096400	          0.00600000	         -0.13262000	          0.00000000	         -0.51179400	          0.00000000	          0.00000000	          0.00000000	          0.00000000	          0.70727500	          0.00000000	         -0.16987800	          0.00000000	          0.00000000	          0.00000000	
          0.33500000	        -33.71900800	        612.63578700	        -17.50846900	          0.17119400	          0.00600000	         -0.13260500	          0.00000000	         -0.51565500	          0.00000000	          0.00000000	          0.00000000	          0.00000000	          0.70727500	          0.00000000	         -0.16987800	          0.00000000	          0.00000000	          0.00000000	
          0.33550000	        -33.50589400	        612.34681500	        -17.45365800	          0.17142500	          0.00600000	         -0.13259000	          0.00000000	         -0.51959000	          0.00000000	          0.00000000	          0.00000000	          0.00000000	          0.70727500	          0.00000000	         -0.16987800	          0.00000000	          0.00000000	          0.00000000	
          0.33600000	        -33.29309100	        612.06307700	        -17.39920000	          0.17165500	          0.00600000	         -0.13257600	          0.00000000	         -0.52359600	          0.00000000	          0.00000000	          0.00000000	          0.00000000	          0.70727500	          0.00000000	         -0.16987800	          0.00000000	          0.00000000	          0.00000000	
          0.33650000	        -33.08059400	        611.78457900	        -17.34510000	          0.17188500	          0.00600000	         -0.13256200	          0.00000000	         -0.52767500	          0.00000000	          0.00000000	          0.00000000	          0.00000000	          0.70727500	          0.00000000	         -0.16987800	          0.00000000	          0.00000000	          0.00000000	
          0.33700000	        -32.86839900	        611.51132800	        -17.29135900	          0.17211500	          0.00600000	         -0.13254700	          0.00000000	         -0.53182500	          0.00000000	          0.00000000	          0.00000000	          0.00000000	          0.70727500	          0.00000000	         -0.16987800	          0.00000000	          0.00000000	          0.00000000	
          0.33750000	        -32.65650000	        611.24333000	        -17.23798100	          0.17234500	          0.00600000	         -0.13253400	          0.00000000	         -0.53604500	          0.00000000	          0.00000000	          0.00000000	          0.00000000	          0.70727500	          0.00000000	         -0.16987800	          0.00000000	          0.00000000	          0.00000000	
          0.33800000	        -32.44489300	        610.98059100	        -17.18497000	          0.17257600	          0.00600000	         -0.13252000	          0.00000000	         -0.54033600	          0.00000000	          0.00000000	          0.00000000	          0.00000000	          0.70727500	          0.00000000	         -0.16987800	          0.00000000	          0.00000000	          0.00000000	
          0.33850000	        -32.23357200	        610.72311600	        -17.13232900	          0.17280500	          0.00600000	         -0.13250600	          0.00000000	         -0.54469700	          0.00000000	          0.00000000	          0.00000000	          0.00000000	          0.70727500	          0.00000000	         -0.16987800	          0.00000000	          0.00000000	          0.00000000	
